<?xml version="1.0" encoding="utf-8"?>
<!-- Generator: Adobe Illustrator 16.0.0, SVG Export Plug-In . SVG Version: 6.00 Build 0)  -->
<!DOCTYPE svg PUBLIC "-//W3C//DTD SVG 1.1//EN" "http://www.w3.org/Graphics/SVG/1.1/DTD/svg11.dtd">
<svg version="1.1" id="Layer_1" xmlns="http://www.w3.org/2000/svg" xmlns:xlink="http://www.w3.org/1999/xlink" x="0px" y="0px"
	 width="16px" height="16px" viewBox="0 0 16 16" enable-background="new 0 0 16 16" xml:space="preserve">
<rect x="0" fill="#8B2312" width="16" height="16.004"/>
<path fill="#FFFFFF" d="M13.192,1.138c-0.392-0.308-0.902-0.263-1.176,0.084l-1.482,1.936c-0.817-0.396-1.729-0.613-2.672-0.59
	C4.79,2.649,2.153,5.264,2.227,8.157c0.073,2.897,2.839,5.376,5.917,5.295c3.073-0.081,5.712-2.692,5.639-5.589
	c-0.04-1.443-0.743-2.783-1.821-3.75l1.399-1.832C13.63,1.933,13.556,1.43,13.192,1.138z M8.096,11.841
	c-2.044,0.054-4.109-1.534-4.165-3.727C3.884,6.181,5.572,4.236,7.904,4.176c0.548-0.013,1.09,0.094,1.6,0.292L6.455,8.331
	C6.186,8.677,6.261,9.182,6.65,9.491C7.02,9.782,7.528,9.735,7.795,9.39l3.148-3.991c0.664,0.647,1.104,1.518,1.123,2.507
	C12.123,9.839,10.428,11.78,8.096,11.841z"/>
</svg>
