<?xml version="1.0" encoding="utf-8"?>
<!-- Generator: Adobe Illustrator 23.0.1, SVG Export Plug-In . SVG Version: 6.00 Build 0)  -->
<svg version="1.1" id="Layer_1" xmlns="http://www.w3.org/2000/svg" xmlns:xlink="http://www.w3.org/1999/xlink" x="0px" y="0px"
	 viewBox="0 0 440.28 108.89" style="enable-background:new 0 0 440.28 108.89;" xml:space="preserve">
<style type="text/css">
	.st0{fill:#8B2312;}
	.st1{fill:#FFFFFF;}
</style>
<rect x="1.61" y="1.08" class="st0" width="107.01" height="107.01"/>
<path class="st1" d="M89.81,8.7c-2.61-2.05-6.02-1.76-7.84,0.56L72.05,22.2c-5.46-2.64-11.56-4.1-17.86-3.93
	c-20.56,0.53-38.2,18.01-37.7,37.37c0.5,19.37,19,35.92,39.57,35.4c20.56-0.53,38.19-18.01,37.7-37.38
	c-0.25-9.64-4.97-18.59-12.18-25.08l9.38-12.25C92.76,14.02,92.26,10.64,89.81,8.7z M55.77,80.28
	c-13.71,0.35-27.49-10.26-27.87-24.94c-0.33-12.91,10.97-25.92,26.56-26.32c3.64-0.09,7.29,0.61,10.69,1.94L44.78,56.81
	c-1.82,2.3-1.31,5.69,1.3,7.75c2.45,1.93,5.86,1.63,7.67-0.68L74.8,37.18c4.42,4.34,7.35,10.14,7.52,16.77
	C82.65,66.87,71.34,79.88,55.77,80.28z"/>
<path class="st0" d="M175.9,20.71l6.65-7.94l-9.26-0.33l-2.89,3.57c-3.28-2.1-6.96-3.26-11.09-3.7c-7.37-0.79-14.47,1.57-19.81,5.95
	c-5.26,4.38-9.06,10.75-9.86,18.19c-0.8,7.45,1.57,14.47,5.78,19.87l0.01-0.08l1.58,1.61l-7.52,9.46h9.17l3.7-4.7
	c3.01,1.77,7.56,3.32,11.17,3.71c7.45,0.8,14.54-1.49,19.88-5.94c5.26-4.38,9.06-10.75,9.86-18.19
	C184.05,34.82,182.04,27.3,175.9,20.71z M141.82,51.91c0.01-0.08-0.36-0.27-0.35-0.34l0.01-0.07c-3.01-3.82-4.75-8.88-4.18-14.22
	c0.57-5.34,3.35-9.91,7.1-13.01c3.84-3.16,8.89-4.83,14.08-4.28c2.41,0.26,4.99,0.99,7.08,2.05L141.82,51.91z M175.59,41.37
	c-0.58,5.42-3.27,9.92-7.02,13.02c-3.91,3.16-8.96,4.82-14.23,4.26c-2.48-0.26-4.72-0.73-7.21-2.29
	c8.69-10.79,15.61-19.33,23.96-29.77C174.31,30.58,176.18,35.8,175.59,41.37z"/>
<polygon class="st0" points="199.92,37.43 218.38,12.91 227.98,12.91 207.78,39.17 230.1,65.8 220.12,65.8 199.92,41.28 "/>
<rect x="190.91" y="12.91" class="st0" width="7.57" height="52.88"/>
<g>
	<path class="st0" d="M275.94,20.18c-4.92-4.92-11.65-8.02-19.14-8.02c-7.41,0-14.22,3.1-19.06,8.02
		c-4.77,4.92-7.87,11.65-7.87,19.14c0,7.49,3.1,14.22,7.87,19.14c4.84,4.99,11.65,8.02,19.06,8.02c7.49,0,14.22-3.03,19.14-8.02
		c4.77-4.92,7.87-11.65,7.87-19.14C283.81,31.83,280.71,25.09,275.94,20.18z M270.5,53.01c-3.56,3.56-8.47,5.75-13.69,5.75
		c-5.22,0-10.06-2.19-13.54-5.75c-3.48-3.48-5.67-8.32-5.67-13.69c0-5.37,2.19-10.21,5.67-13.69c3.48-3.56,8.32-5.75,13.54-5.75
		c5.22,0,10.14,2.19,13.69,5.75c3.41,3.48,5.6,8.25,5.6,13.69C276.09,44.76,273.9,49.53,270.5,53.01z"/>
</g>
<polygon class="st0" points="291.59,65.8 291.59,12.76 297.5,12.84 323.29,50.14 323.29,12.84 330.86,12.84 330.86,65.8 
	324.81,65.8 299.24,28.8 299.24,65.8 "/>
<g>
	<path class="st0" d="M364.67,12.16c-7.41,0-14.22,3.1-19.07,8.02c-4.77,4.92-7.87,11.65-7.87,19.14c0,7.49,3.1,14.22,7.87,19.14
		c4.84,4.99,11.65,8.02,19.07,8.02c7.49,0,14.22-3.03,19.14-8.02c4.77-4.92,7.87-11.65,7.87-19.14c0-7.49-3.1-14.22-7.87-19.14
		C378.89,15.26,372.16,12.16,364.67,12.16z M378.36,53.01c-3.56,3.56-8.47,5.75-13.69,5.75c-5.22,0-10.06-2.19-13.54-5.75
		c-3.48-3.48-5.68-8.32-5.68-13.69c0-5.37,2.2-10.21,5.68-13.69c3.48-3.56,8.32-5.75,13.54-5.75c5.22,0,10.14,2.19,13.69,5.75
		c3.41,3.48,5.6,8.25,5.6,13.69C383.96,44.76,381.77,49.53,378.36,53.01z"/>
	<path class="st0" d="M422.39,45.9c9.08-1.59,13.7-8.7,13.7-16.19c0-8.4-5.75-16.87-17.25-16.87h-19.29V65.8h7.57V20.55h11.72
		c6.43,0,9.61,4.62,9.61,9.15c0,4.61-3.18,9.23-9.61,9.23h-8.93v3.63L429.2,65.8h9.91L422.39,45.9z"/>
</g>
<path d="M149.31,87.58c0-2.83-1.94-5.68-5.8-5.68h-6.49v17.82h2.55V84.5h3.95c2.16,0,3.23,1.55,3.23,3.08
	c0,1.55-1.07,3.11-3.23,3.11h-3v1.22l6.49,7.82h3.34l-5.63-6.69C147.76,92.49,149.31,90.1,149.31,87.58z"/>
<polygon points="156.33,92.11 164.4,92.11 164.4,89.51 156.33,89.51 156.33,84.5 164.58,84.5 164.58,81.92 153.74,81.92 
	153.74,99.72 164.61,99.72 164.61,97.15 156.33,97.15 "/>
<path d="M176.24,93.76h6.59c-1.07,2.6-3.41,3.61-5.6,3.61c-3.49,0-6.19-2.77-6.19-6.54c0-3.74,2.7-6.47,6.19-6.47
	c2.27,0,5.01,1.04,5.73,3.92h2.75c-0.94-4.73-5.07-6.49-8.48-6.49c-4.91,0-8.76,3.77-8.76,9.04c0,5.24,3.77,9.01,8.76,9.01
	c3.23,0,6.9-2.19,8.12-5.6v0.03c0.23-0.59,0.36-1.58,0.48-3.08h-9.6V93.76z"/>
<polygon points="200.97,94.45 192.29,81.9 190.3,81.87 190.3,99.72 192.88,99.72 192.88,87.27 201.48,99.72 203.52,99.72 
	203.52,81.9 200.97,81.9 "/>
<path d="M207.89,91.47c0-0.01,0-0.02,0-0.03l0,0V91.47z"/>
<path d="M214.51,89.48c-1.91-0.18-3.92-0.41-4.05-2.24c-0.05-0.61,0.08-1.2,0.43-1.65c0.71-0.92,2.04-1.32,3.23-1.35
	c1.55-0.03,3.28,0.66,3.64,2.27l2.55-0.1c-0.46-3.26-3.31-4.68-6.06-4.68c-2.06,0-4.2,0.81-5.4,2.37c-0.76,0.99-1.06,2.17-0.97,3.36
	c0.28,3.72,3.54,4.33,6.31,4.61c1.78,0.18,3.61,0.41,3.92,1.76c0.05,0.23,0.08,0.43,0.08,0.61c0,1.83-2.09,2.9-4,2.9
	c-1.66,0-3.67-0.87-3.84-2.52v0.1l-0.03-0.38l-2.6,0.05l0.03,0.48c0.33,3.18,3.67,4.81,6.42,4.81c3.21,0,6.62-1.99,6.62-5.42
	c0-0.36-0.05-0.79-0.13-1.17C219.98,90.43,216.95,89.79,214.51,89.48z"/>
<polygon points="238.23,81.92 235,81.92 228.79,90.17 228.79,91.47 235.58,99.72 238.94,99.72 231.43,90.76 "/>
<rect x="225.75" y="81.92" width="2.55" height="17.8"/>
<path d="M249.68,81.67h-1.88l-7.16,18.05h2.78c0.56-1.48,1.45-3.61,2.14-5.24h6.39l2.14,5.24h2.75L249.68,81.67z M246.52,92.06
	l2.24-6.29l2.19,6.29H246.52z"/>
<path d="M267.42,81.9h-6.52v17.82h2.6v-5.93h3.92c3.84,0,5.78-2.95,5.78-5.93C273.19,84.88,271.26,81.9,267.42,81.9z M267.42,91.24
	h-3.92V84.5h3.92c2.16,0,3.23,1.68,3.23,3.38C270.65,89.56,269.58,91.24,267.42,91.24z"/>
<path d="M283.75,89.48c-1.91-0.18-3.92-0.41-4.05-2.24c-0.05-0.61,0.08-1.2,0.43-1.65c0.71-0.92,2.04-1.32,3.23-1.35
	c1.55-0.03,3.28,0.66,3.64,2.27l2.55-0.1c-0.46-3.26-3.31-4.68-6.06-4.68c-2.06,0-4.2,0.81-5.4,2.37c-0.76,0.99-1.06,2.17-0.97,3.36
	c0.28,3.72,3.54,4.33,6.32,4.61c1.78,0.18,3.61,0.41,3.92,1.76c0.05,0.23,0.08,0.43,0.08,0.61c0,1.83-2.09,2.9-4,2.9
	c-1.66,0-3.67-0.87-3.84-2.52v0.1l-0.03-0.38l-2.6,0.05l0.03,0.48c0.33,3.18,3.67,4.81,6.42,4.81c3.21,0,6.62-1.99,6.62-5.42
	c0-0.36-0.05-0.79-0.13-1.17C289.23,90.43,286.2,89.79,283.75,89.48z"/>
<path d="M277.13,91.47c0-0.01,0-0.02,0-0.03l0,0V91.47z"/>
<path d="M304.88,89.92c1.78-1.27,2.01-3.31,1.3-5.07c-0.66-1.66-2.09-2.93-4.33-2.93h-7.41v17.8h8.04c3.41,0,5.17-2.7,5.17-5.37
	C307.65,92.67,306.91,90.78,304.88,89.92z M296.99,84.37h4.86c2.8,0,2.75,4.63-0.05,4.63h-4.81V84.37z M302.48,97.22h-5.5v-5.68h5.5
	c1.73,0,2.6,1.43,2.6,2.83C305.08,95.77,304.22,97.22,302.48,97.22z"/>
<polygon points="318.01,89.74 313.15,81.92 310.12,81.92 316.71,92.46 316.71,99.72 319.31,99.72 319.31,92.46 325.92,81.92 
	322.87,81.92 "/>
<path d="M341.6,87.58c0-2.83-1.94-5.68-5.8-5.68h-6.49v17.82h2.54V84.5h3.95c2.16,0,3.23,1.55,3.23,3.08c0,1.55-1.07,3.11-3.23,3.11
	h-3.01v1.22l6.49,7.82h3.33l-5.63-6.69C340.05,92.49,341.6,90.1,341.6,87.58z"/>
<path d="M353.69,82.08c0.58-0.38,0.97-1.04,0.97-1.81c0-1.17-0.99-2.16-2.17-2.16c-1.17,0-2.11,0.99-2.11,2.16
	c0,0.79,0.43,1.5,1.07,1.88l-6.95,17.57h2.77c0.56-1.48,1.45-3.62,2.14-5.25h6.39l2.14,5.25h2.75L353.69,82.08z M352.49,79.43
	c0.51,0,0.84,0.41,0.84,0.84c0,0.41-0.33,0.79-0.84,0.79c-0.41,0-0.79-0.38-0.79-0.79C351.7,79.84,352.08,79.43,352.49,79.43z
	 M350.38,92.06l2.24-6.29l2.19,6.29H350.38z"/>
</svg>
